<svg xmlns="http://www.w3.org/2000/svg" width="133" height="38" viewBox="0 0 133 38">
    <g fill="#FFF" fill-rule="nonzero">
        <path d="M11.35 21.495l7.063-4.338V1.483a17.253 17.253 0 0 0-7.063 1.699v18.313zm-1.513.93V4.004a17.44 17.44 0 0 0-8.364 14.91c0 2.72.62 5.293 1.726 7.586l6.638-4.077zm10.09 5.448l7.062-4.39V3.501a17.236 17.236 0 0 0-7.063-1.99v26.362zm-1.514.94V18.88l-14.52 8.918a17.496 17.496 0 0 0 6.204 6.184l8.316-5.168zm10.089-6.27l7.696-4.783a17.375 17.375 0 0 0-2.235-7.472l-5.461 3.204v9.05zm0-18.135v7.38l4.68-2.746a17.505 17.505 0 0 0-4.68-4.634zm-.006-1.751h.006v.004a18.918 18.918 0 0 1 9.206 16.254c0 10.447-8.441 18.916-18.854 18.916C8.441 37.83 0 29.36 0 18.915S8.441 0 18.854 0c3.523 0 6.82.97 9.642 2.657zm-16.88 32.116a17.27 17.27 0 0 0 7.238 1.58c9.412 0 17.076-7.505 17.372-16.875l-24.61 15.295zM69.223 18.293c0 1.613-.043 2.73-.152 3.398-.195 1.311-.652 2.3-1.37 3.01-.955.947-2.26 1.42-3.911 1.42h-5.304V10.809h5.304c1.651 0 2.956.473 3.912 1.42.717.709 1.174 1.655 1.37 2.838.108.623.151 1.699.151 3.226zm-1.651 0c0-1.312-.044-2.237-.11-2.753-.13-.946-.434-1.656-.912-2.15-.717-.753-1.739-1.119-3.043-1.119h-3.369v12.387h3.37c1.303 0 2.325-.365 3.042-1.118.456-.473.76-1.247.913-2.323.065-.58.109-1.548.109-2.924zm13.67 7.828v-6.796c0-2.409-1.434-3.914-3.846-3.914-1.24 0-2.239.43-3 1.29V10.81h-1.565V26.12h1.565v-6.538c0-1.806 1.022-2.796 2.674-2.796 1.739 0 2.608.925 2.608 2.796v6.538h1.565zm11.433 0h-1.564V25.11c-.761.753-1.804 1.14-3.087 1.14-1.37 0-2.39-.323-3.021-.968-.543-.538-.804-1.269-.804-2.15 0-1.893 1.347-3.054 3.695-3.054h3.217v-1.011c0-1.549-.913-2.323-2.74-2.323-1.216 0-2.107.409-2.694 1.205l-1.065-.968c.456-.58 1-1.01 1.608-1.247.544-.216 1.283-.323 2.174-.323 2.847 0 4.281 1.183 4.281 3.527v7.183zm-1.564-3.742v-1.14h-3c-1.587 0-2.39.624-2.39 1.87 0 1.205.825 1.807 2.455 1.807 1.109 0 1.891-.236 2.391-.71.37-.343.544-.946.544-1.827zm12.497-5.979c-.674-.666-1.521-.99-2.565-.99-1.369 0-2.369.474-2.999 1.42v-1.29h-1.565v10.58h1.565v-6.494c0-1.634 1.022-2.839 2.565-2.839.717 0 1.326.258 1.847.774l1.152-1.16zm17.323 9.72v-6.774c0-1.225-.391-2.215-1.152-2.946-.674-.666-1.608-.99-2.76-.99-1.5 0-2.674.582-3.521 1.764-.674-1.182-1.76-1.763-3.282-1.763-1.24 0-2.26.43-3.022 1.29V15.54h-1.564v10.58h1.564v-6.515c0-1.807 1.022-2.818 2.674-2.818 1.76 0 2.63.947 2.63 2.818v6.516h1.565v-6.689c0-1.634 1.086-2.645 2.673-2.645 1.76 0 2.63.947 2.63 2.818v6.516h1.565zm11.433 0h-1.565v-1.01c-.761.753-1.804 1.14-3.087 1.14-1.369 0-2.39-.323-3.02-.968-.544-.538-.805-1.269-.805-2.15 0-1.893 1.348-3.054 3.695-3.054h3.217v-1.011c0-1.549-.913-2.323-2.739-2.323-1.217 0-2.108.409-2.695 1.205l-1.065-.968c.456-.58 1-1.01 1.608-1.247.544-.216 1.283-.323 2.174-.323 2.847 0 4.282 1.183 4.282 3.527v7.183zm-1.565-3.741v-1.14h-3c-1.586 0-2.39.624-2.39 1.87 0 1.205.825 1.807 2.455 1.807 1.109 0 1.891-.236 2.391-.71.37-.343.544-.946.544-1.827z"/>
    </g>
</svg>
