<svg xmlns="http://www.w3.org/2000/svg" width="64" height="64" viewBox="0 0 64 64">
    <g fill="none" fill-rule="evenodd">
        <circle cx="32" cy="32" r="32" fill="#FFBA02"/>
        <path d="M13 13h38v38H13z"/>
        <path fill="#000" d="M22.417 38.333h3.333a1.5 1.5 0 0 1 1.5 1.5v4.917a1.5 1.5 0 0 1-1.5 1.5h-3.333a1.5 1.5 0 0 1-1.5-1.5v-4.917a1.5 1.5 0 0 1 1.5-1.5zm15.833 0h3.333a1.5 1.5 0 0 1 1.5 1.5v4.917a1.5 1.5 0 0 1-1.5 1.5H38.25a1.5 1.5 0 0 1-1.5-1.5v-4.917a1.5 1.5 0 0 1 1.5-1.5z" opacity=".3"/>
        <path fill="#000" d="M19.75 19.333h24.5a2 2 0 0 1 2 2v19.75a2 2 0 0 1-2 2h-24.5a2 2 0 0 1-2-2v-19.75a2 2 0 0 1 2-2zM37.542 36.75a5.542 5.542 0 1 0 0-11.083 5.542 5.542 0 0 0 0 11.083zm0-3.167a2.375 2.375 0 1 0 0-4.75 2.375 2.375 0 0 0 0 4.75zM23.5 25.667h1.167a1 1 0 0 1 1 1V31a1 1 0 0 1-1 1H23.5a1 1 0 0 1-1-1v-4.333a1 1 0 0 1 1-1z"/>
    </g>
</svg>
